<?xml version="1.0" encoding="UTF-8"?>
<svg width="246px" height="224px" viewBox="0 0 246 224" version="1.1" xmlns="http://www.w3.org/2000/svg" xmlns:xlink="http://www.w3.org/1999/xlink">
    <!-- Generator: Sketch 46.2 (44496) - http://www.bohemiancoding.com/sketch -->
    <title>decko_5_cards_logo</title>
    <desc>Created with Sketch.</desc>
    <defs>
        <rect id="path-1" x="26.5776364" y="-11.3194235" width="162.656836" height="202.344656" rx="12.491335"></rect>
        <filter x="-11.7%" y="-9.9%" width="124.6%" height="119.8%" filterUnits="objectBoundingBox" id="filter-2">
            <feMorphology radius="1" operator="dilate" in="SourceAlpha" result="shadowSpreadOuter1"></feMorphology>
            <feOffset dx="1" dy="0" in="shadowSpreadOuter1" result="shadowOffsetOuter1"></feOffset>
            <feGaussianBlur stdDeviation="5.5" in="shadowOffsetOuter1" result="shadowBlurOuter1"></feGaussianBlur>
            <feColorMatrix values="0 0 0 0 0   0 0 0 0 0   0 0 0 0 0  0 0 0 0.1 0" type="matrix" in="shadowBlurOuter1"></feColorMatrix>
        </filter>
        <rect id="path-3" x="35.3297422" y="6.48483603" width="157.279595" height="190.607432" rx="12.491335"></rect>
        <filter x="-12.1%" y="-10.5%" width="125.4%" height="121.0%" filterUnits="objectBoundingBox" id="filter-4">
            <feMorphology radius="1" operator="dilate" in="SourceAlpha" result="shadowSpreadOuter1"></feMorphology>
            <feOffset dx="1" dy="0" in="shadowSpreadOuter1" result="shadowOffsetOuter1"></feOffset>
            <feGaussianBlur stdDeviation="5.5" in="shadowOffsetOuter1" result="shadowBlurOuter1"></feGaussianBlur>
            <feColorMatrix values="0 0 0 0 0   0 0 0 0 0   0 0 0 0 0  0 0 0 0.1 0" type="matrix" in="shadowBlurOuter1"></feColorMatrix>
        </filter>
        <rect id="path-5" x="42.9878879" y="9.40407697" width="123.9533" height="171.161486" rx="9.6888466"></rect>
        <filter x="-15.3%" y="-11.7%" width="132.3%" height="123.4%" filterUnits="objectBoundingBox" id="filter-6">
            <feMorphology radius="1" operator="dilate" in="SourceAlpha" result="shadowSpreadOuter1"></feMorphology>
            <feOffset dx="1" dy="0" in="shadowSpreadOuter1" result="shadowOffsetOuter1"></feOffset>
            <feGaussianBlur stdDeviation="5.5" in="shadowOffsetOuter1" result="shadowBlurOuter1"></feGaussianBlur>
            <feColorMatrix values="0 0 0 0 0   0 0 0 0 0   0 0 0 0 0  0 0 0 0.1 0" type="matrix" in="shadowBlurOuter1"></feColorMatrix>
        </filter>
        <path d="M43.1050368,16.6666109 L132.089911,16.6666109 L132.089911,16.6666109 C136.678051,16.6666109 140.397473,20.386033 140.397473,24.9741728 L140.397473,68.717145 L140.397473,147.808436 L140.397473,147.808436 C140.397473,152.396576 136.678051,156.115998 132.089911,156.115998 L43.1050368,156.115998 L43.1050368,156.115998 C38.516897,156.115998 34.7974749,152.396576 34.7974749,147.808436 L34.7974749,24.9741728 L34.7974749,24.9741728 C34.7974749,20.386033 38.516897,16.6666109 43.1050368,16.6666109 Z" id="path-7"></path>
        <filter x="-18.0%" y="-14.3%" width="137.9%" height="128.7%" filterUnits="objectBoundingBox" id="filter-8">
            <feMorphology radius="1" operator="dilate" in="SourceAlpha" result="shadowSpreadOuter1"></feMorphology>
            <feOffset dx="1" dy="0" in="shadowSpreadOuter1" result="shadowOffsetOuter1"></feOffset>
            <feGaussianBlur stdDeviation="5.5" in="shadowOffsetOuter1" result="shadowBlurOuter1"></feGaussianBlur>
            <feColorMatrix values="0 0 0 0 0   0 0 0 0 0   0 0 0 0 0  0 0 0 0.1 0" type="matrix" in="shadowBlurOuter1"></feColorMatrix>
        </filter>
        <rect id="path-9" x="23.7637805" y="17.8525134" width="92.149175" height="107.18743" rx="7.8659801"></rect>
        <filter x="-20.6%" y="-18.7%" width="143.4%" height="137.3%" filterUnits="objectBoundingBox" id="filter-10">
            <feMorphology radius="1" operator="dilate" in="SourceAlpha" result="shadowSpreadOuter1"></feMorphology>
            <feOffset dx="1" dy="0" in="shadowSpreadOuter1" result="shadowOffsetOuter1"></feOffset>
            <feGaussianBlur stdDeviation="5.5" in="shadowOffsetOuter1" result="shadowBlurOuter1"></feGaussianBlur>
            <feColorMatrix values="0 0 0 0 0   0 0 0 0 0   0 0 0 0 0  0 0 0 0.102553216 0" type="matrix" in="shadowBlurOuter1"></feColorMatrix>
        </filter>
    </defs>
    <g id="decko_logo_container" stroke="none" stroke-width="1" fill="none" fill-rule="evenodd">
        <g id="decko_5_cards_logo" fill-rule="nonzero">
            <g id="decko_logo_groups" transform="translate(9.000000, 9.000000)">
                <g id="svg-card-0-group" transform="translate(6.000000, 13.000000)">
                    <g id="svg-card-0" transform="translate(107.906054, 89.852904) scale(-1, 1) rotate(95.000000) translate(-107.906054, -89.852904) ">
                        <use fill="black" fill-opacity="1" filter="url(#filter-2)" xlink:href="#path-1"></use>
                        <use fill="#FFFFFF" fill-rule="evenodd" xlink:href="#path-1"></use>
                    </g>
                    <g id="svg-card-0-mascot" transform="translate(76.000000, 47.000000)" fill="#4D4D4D">
                        <path d="M35.6086957,75.4032258 L35.6086957,76.7741935 L38.3478261,76.7741935 L38.3478261,75.4032258 C38.3478261,74.6464516 38.9613913,74.0322581 39.7173913,74.0322581 L41.0869565,74.0322581 L41.0869565,71.2903226 L39.7173913,71.2903226 C37.4521304,71.2903226 35.6086957,73.1356452 35.6086957,75.4032258 Z" id="Shape"></path>
                        <path d="M46.5652174,27.4193548 C44.2999565,27.4193548 42.4565217,29.2646774 42.4565217,31.5322581 C42.4565217,33.7998387 44.2999565,35.6451613 46.5652174,35.6451613 C48.8304783,35.6451613 50.673913,33.7998387 50.673913,31.5322581 C50.673913,29.2646774 48.8304783,27.4193548 46.5652174,27.4193548 Z M46.5652174,32.9032258 C45.8092174,32.9032258 45.1956522,32.2890323 45.1956522,31.5322581 C45.1956522,30.7754839 45.8092174,30.1612903 46.5652174,30.1612903 C47.3212174,30.1612903 47.9347826,30.7754839 47.9347826,31.5322581 C47.9347826,32.2890323 47.3212174,32.9032258 46.5652174,32.9032258 Z" id="Shape"></path>
                        <path d="M23.2826087,71.2903226 L21.9130435,71.2903226 L21.9130435,74.0322581 L23.2826087,74.0322581 C24.0386087,74.0322581 24.6521739,74.6464516 24.6521739,75.4032258 L24.6521739,76.7741935 L27.3913043,76.7741935 L27.3913043,75.4032258 C27.3913043,73.1356452 25.5478696,71.2903226 23.2826087,71.2903226 Z" id="Shape"></path>
                        <path d="M31.5,0 C3.26504348,0 0,16.4310484 0,28.7903226 C0,40.2283065 4.12513043,44.8704032 7.43947826,48.6008065 C8.31873913,49.5906452 9.15006522,50.5256452 9.8321087,51.508629 C12.4164783,55.2253226 13.932587,60.4692742 14.2585435,61.6729839 L12.4507174,73.1301613 C12.3671739,73.6579839 12.326087,74.1954032 12.326087,74.7314516 C12.326087,80.3935484 16.9278261,85 22.5841304,85 L40.4158696,85 C46.0721739,85 50.673913,80.3935484 50.673913,74.7300806 C50.673913,74.1954032 50.6328261,73.6579839 50.547913,73.1287903 L48.7414565,61.6729839 C49.0646739,60.4747581 50.5766739,55.2362903 53.1692609,51.508629 C53.8513043,50.5256452 54.6826304,49.5906452 55.5618913,48.6008065 C58.8748696,44.8704032 63,40.2283065 63,28.7903226 C63,16.4310484 59.7349565,0 31.5,0 Z M40.4158696,82.2580645 L22.5841304,82.2580645 C18.4384565,82.2580645 15.0652174,78.881371 15.0652174,74.7300806 C15.0652174,74.3379839 15.0953478,73.9431452 15.1556087,73.5579032 L18.9766957,49.3356452 C19.0438043,49.3383871 19.1068043,49.3548387 19.173913,49.3548387 L35.6086957,49.3548387 L35.6086957,46.6129032 L19.173913,46.6129032 C18.417913,46.6129032 17.8043478,45.9987097 17.8043478,45.2419355 C17.8043478,44.4851613 18.417913,43.8709677 19.173913,43.8709677 L24.3522391,43.8709677 L25.2013696,40.4641129 C25.5081522,39.2412097 26.6010652,38.3870968 27.8610652,38.3870968 L35.1389348,38.3870968 C36.3989348,38.3870968 37.4918478,39.2412097 37.7972609,40.4641129 L38.6477609,43.8709677 L43.826087,43.8709677 C44.582087,43.8709677 45.1956522,44.4851613 45.1956522,45.2419355 C45.1956522,45.9987097 44.582087,46.6129032 43.826087,46.6129032 L38.3478261,46.6129032 L38.3478261,49.3548387 L43.826087,49.3548387 C43.8931957,49.3548387 43.9561957,49.3383871 44.0233043,49.3342742 L47.8430217,73.5551613 C47.9046522,73.9431452 47.9347826,74.3379839 47.9347826,74.7314516 C47.9347826,78.881371 44.5615435,82.2580645 40.4158696,82.2580645 Z M53.5143913,46.7787903 C52.5789783,47.8316935 51.6956087,48.8256452 50.9176957,49.9429839 C49.6303043,51.7951613 48.6017609,53.9352419 47.8224783,55.8573387 L46.6213696,48.238871 C47.4253043,47.4875806 47.9347826,46.4264516 47.9347826,45.2419355 C47.9347826,42.9743548 46.0913478,41.1290323 43.826087,41.1290323 L40.7870217,41.1290323 L40.4542174,39.7991935 C39.8447609,37.3533871 37.6575652,35.6451613 35.1389348,35.6451613 L27.8610652,35.6451613 C25.3424348,35.6451613 23.1552391,37.3533871 22.5457826,39.7991935 L22.2129783,41.1290323 L19.173913,41.1290323 C16.9086522,41.1290323 15.0652174,42.9743548 15.0652174,45.2419355 C15.0652174,46.4264516 15.5746957,47.4875806 16.3786304,48.238871 L15.1761522,55.8559677 C14.3968696,53.9352419 13.3683261,51.7951613 12.0809348,49.9429839 C11.3043913,48.8270161 10.4196522,47.8316935 9.48423913,46.7787903 C6.32328261,43.2183871 2.73913043,39.185 2.73913043,28.7903226 C2.73913043,10.5331452 11.34,2.74193548 31.5,2.74193548 C51.66,2.74193548 60.2608696,10.5331452 60.2608696,28.7903226 C60.2608696,39.185 56.6767174,43.2183871 53.5143913,46.7787903 Z" id="Shape"></path>
                        <path d="M16.4347826,27.4193548 C14.1695217,27.4193548 12.326087,29.2646774 12.326087,31.5322581 C12.326087,33.7998387 14.1695217,35.6451613 16.4347826,35.6451613 C18.7000435,35.6451613 20.5434783,33.7998387 20.5434783,31.5322581 C20.5434783,29.2646774 18.7000435,27.4193548 16.4347826,27.4193548 Z M16.4347826,32.9032258 C15.6787826,32.9032258 15.0652174,32.2890323 15.0652174,31.5322581 C15.0652174,30.7754839 15.6787826,30.1612903 16.4347826,30.1612903 C17.1907826,30.1612903 17.8043478,30.7754839 17.8043478,31.5322581 C17.8043478,32.2890323 17.1907826,32.9032258 16.4347826,32.9032258 Z" id="Shape"></path>
                    </g>
                </g>
                <g id="svg-card-1-group">
                    <g id="svg-card-1" transform="translate(113.969540, 101.788552) scale(-1, 1) rotate(105.855860) translate(-113.969540, -101.788552) ">
                        <use fill="black" fill-opacity="1" filter="url(#filter-4)" xlink:href="#path-3"></use>
                        <use fill="#4D4D4D" fill-rule="evenodd" xlink:href="#path-3"></use>
                    </g>
                    <g id="svg-card-1-mascot" transform="translate(64.000000, 56.000000)" fill="#FFFFFF">
                        <g id="Group">
                            <path d="M50.7158,83.51756 C36.17399,83.51756 24.78194,77.1533 24.78194,69.02905 C24.78194,61.0945 36.52359,45.54805 50.7158,45.54805 C64.90801,45.54805 76.64966,61.0945 76.64966,69.02905 C76.64967,77.15331 65.25761,83.51756 50.7158,83.51756 Z M50.7158,48.36426 C38.29904,48.36426 27.59929,62.22465 27.59929,69.02905 C27.59929,75.35606 38.18557,80.70135 50.7158,80.70135 C63.24603,80.70135 73.83231,75.35606 73.83231,69.02905 C73.83231,62.22466 63.13256,48.36426 50.7158,48.36426 Z" id="Shape"></path>
                            <path d="M50.7158,76.32117 C46.59522,76.32117 42.47579,75.26036 38.38386,73.13818 C37.69385,72.78057 37.42449,71.93009 37.78211,71.24008 C38.14087,70.54777 38.99135,70.28013 39.68136,70.63833 C47.10643,74.4884 54.32518,74.4884 61.75025,70.63833 C62.43912,70.28014 63.28959,70.54778 63.6495,71.24008 C64.00711,71.93009 63.73776,72.78057 63.04775,73.13818 C58.95581,75.26036 54.83638,76.32117 50.7158,76.32117 Z" id="Shape"></path>
                            <g transform="translate(43.000000, 54.000000)" id="Shape">
                                <path d="M3.47258,4.42616 C3.13331,4.42616 2.79288,4.30466 2.52238,4.05766 L0.85351,2.53207 C0.27926,2.00711 0.23915,1.11652 0.76411,0.54227 C1.28792,-0.0314 2.17966,-0.07152 2.75391,0.45286 L4.42278,1.97845 C4.99703,2.50341 5.03714,3.394 4.51218,3.96825 C4.2348,4.272 3.85426,4.42616 3.47258,4.42616 Z"></path>
                                <path d="M11.95902,4.42616 C11.57734,4.42616 11.19795,4.272 10.91942,3.96826 C10.39446,3.39401 10.43458,2.50342 11.00883,1.97846 L12.67769,0.45287 C13.25308,-0.07151 14.14139,-0.0314 14.66749,0.54228 C15.19245,1.11653 15.15233,2.00712 14.57808,2.53208 L12.90922,4.05767 C12.63872,4.30466 12.2983,4.42616 11.95902,4.42616 Z"></path>
                            </g>
                            <path d="M31.31182,59.0451 C31.13989,59.0451 30.96567,59.01358 30.79603,58.9471 C23.16923,55.9475 18.24058,48.71385 18.24058,40.51853 C18.24058,29.59928 27.12476,20.71625 38.04343,20.71625 C43.14401,20.71625 47.98898,22.65103 51.68547,26.1647 C52.2494,26.70055 52.27232,27.59172 51.73705,28.15565 C51.20063,28.719 50.30889,28.74193 49.74611,28.20608 C46.57458,25.19273 42.41847,23.53246 38.04344,23.53246 C28.67786,23.53246 21.05794,31.15238 21.05794,40.51853 C21.05794,47.54816 25.28512,53.75253 31.82761,56.32574 C32.55086,56.61057 32.90733,57.42781 32.62192,58.15163 C32.40415,58.7064 31.87346,59.0451 31.31182,59.0451 Z" id="Shape"></path>
                            <path d="M70.11977,59.0451 C69.55814,59.0451 69.02745,58.70639 68.80967,58.15164 C68.52426,57.42782 68.88073,56.61058 69.60398,56.32575 C76.14648,53.75311 80.3725,47.54817 80.3725,40.51854 C80.3725,31.15239 72.75258,23.53247 63.387,23.53247 C59.01311,23.53247 54.857,25.19274 51.68547,28.20609 C51.12384,28.74194 50.23095,28.71901 49.69453,28.15566 C49.15926,27.59173 49.18218,26.70056 49.74611,26.16471 C53.4426,22.65104 58.28758,20.71626 63.38701,20.71626 C74.30569,20.71626 83.18986,29.59929 83.18986,40.51854 C83.18986,48.71385 78.26121,55.94751 70.63556,58.94711 C70.46593,59.01358 70.29171,59.0451 70.11977,59.0451 Z" id="Shape"></path>
                            <path d="M26.32701,68.93278 C26.01639,68.93278 25.70348,68.83077 25.44215,68.61987 C16.3849,61.29624 11.18918,50.45779 11.18918,38.88349 C11.18918,17.70921 28.59992,0.48244 49.99943,0.48244 C71.39894,0.48244 88.80968,17.70922 88.80968,38.88349 C88.80968,49.70016 84.16414,60.07038 76.0651,67.33441 C75.48742,67.85306 74.59797,67.80607 74.07645,67.22667 C73.55722,66.64726 73.60536,65.75724 74.18534,65.23801 C81.68835,58.50697 85.99232,48.90126 85.99232,38.88349 C85.99232,19.26231 69.84584,3.29864 49.99943,3.29864 C30.15302,3.29864 14.00653,19.26231 14.00653,38.88349 C14.00653,49.60273 18.82056,59.64285 27.21416,66.42948 C27.81821,66.91833 27.91219,67.80549 27.42277,68.41011 C27.1454,68.75454 26.73735,68.93278 26.32701,68.93278 Z" id="Shape"></path>
                            <path d="M13.00705,52.75133 C5.83529,52.75133 0,44.60473 0,34.59098 C0,24.5778 5.83529,16.4312 13.00705,16.4312 C15.06562,16.4312 17.11273,17.1109 18.92601,18.39635 C19.55986,18.84623 19.71001,19.72537 19.25955,20.35979 C18.81139,20.99478 17.93111,21.14379 17.29611,20.69448 C15.94245,19.73454 14.49939,19.24741 13.00704,19.24741 C7.38838,19.24741 2.81734,26.1309 2.81734,34.59098 C2.81734,43.05164 7.38838,49.93512 13.00704,49.93512 C13.47698,49.93512 13.95151,49.88469 14.41686,49.78554 C15.1722,49.62278 15.92411,50.10819 16.08802,50.8687 C16.24963,51.6292 15.76479,52.37767 15.00372,52.53986 C14.34695,52.68027 13.67414,52.75133 13.00705,52.75133 Z" id="Shape"></path>
                            <path d="M86.99295,52.75133 C86.32471,52.75133 85.6519,52.68027 84.99513,52.53986 C84.23405,52.37767 83.74921,51.6292 83.91083,50.8687 C84.07473,50.1082 84.82435,49.62393 85.58199,49.78554 C86.04734,49.88469 86.52187,49.93512 86.99295,49.93512 C92.61161,49.93512 97.18265,43.05163 97.18265,34.59098 C97.18265,26.1309 92.61161,19.24741 86.99295,19.24741 C85.49946,19.24741 84.0564,19.73397 82.70388,20.69391 C82.06774,21.14322 81.1909,20.99364 80.74044,20.36037 C80.28999,19.72595 80.44014,18.84682 81.07399,18.39693 C82.88612,17.1109 84.93324,16.4312 86.99295,16.4312 C94.16471,16.4312 100,24.5778 100,34.59098 C100,44.60473 94.16471,52.75133 86.99295,52.75133 Z" id="Shape"></path>
                            <path d="M35.59172,41.92664 C33.12396,41.92664 31.11697,39.91965 31.11697,37.45246 C31.11697,34.98584 33.12396,32.97885 35.59172,32.97885 C38.05948,32.97885 40.06647,34.98584 40.06647,37.45246 C40.06648,39.91965 38.05949,41.92664 35.59172,41.92664 Z M35.59172,35.79506 C34.6782,35.79506 33.93432,36.53894 33.93432,37.45246 C33.93432,38.36655 34.6782,39.11043 35.59172,39.11043 C36.50524,39.11043 37.24912,38.36655 37.24912,37.45246 C37.24913,36.53894 36.50525,35.79506 35.59172,35.79506 Z" id="Shape"></path>
                            <path d="M65.83987,41.92664 C63.37211,41.92664 61.36512,39.91965 61.36512,37.45246 C61.36512,34.98584 63.37211,32.97885 65.83987,32.97885 C68.30764,32.97885 70.31462,34.98584 70.31462,37.45246 C70.31463,39.91965 68.30764,41.92664 65.83987,41.92664 Z M65.83987,35.79506 C64.92635,35.79506 64.18247,36.53894 64.18247,37.45246 C64.18247,38.36655 64.92635,39.11043 65.83987,39.11043 C66.75339,39.11043 67.49727,38.36655 67.49727,37.45246 C67.49728,36.53894 66.7534,35.79506 65.83987,35.79506 Z" id="Shape"></path>
                        </g>
                    </g>
                </g>
                <g id="svg-card-2-group" transform="translate(9.000000, 6.000000)">
                    <g id="svg-card-2" transform="translate(104.964538, 94.984820) scale(-1, 1) rotate(117.480003) translate(-104.964538, -94.984820) ">
                        <use fill="black" fill-opacity="1" filter="url(#filter-6)" xlink:href="#path-5"></use>
                        <use fill="#FFFFFF" fill-rule="evenodd" xlink:href="#path-5"></use>
                    </g>
                    <g id="svg-card-2-mascot" transform="translate(52.000000, 63.000000)" fill="#4C4C4C">
                        <path d="M97.26234,33.76727 C97.21764,33.76727 97.17294,33.76498 97.12824,33.76039 C96.35344,33.68704 95.78608,32.99934 95.85944,32.22511 C96.01532,30.58667 96.25945,29.0216 96.49556,27.50752 C97.22108,22.86328 97.8549,18.80359 95.68752,14.45449 C89.7401,17.37261 86.08958,21.65523 84.54456,27.51325 C84.34742,28.2657 83.57491,28.71672 82.82418,28.51557 C82.0723,28.31729 81.623,27.54707 81.82129,26.79461 C83.69756,19.67983 88.24322,14.6224 95.71847,11.33522 C96.37178,11.04753 97.12596,11.29052 97.49158,11.89626 C100.9014,17.5474 100.11399,22.5968 99.27844,27.94191 C99.04921,29.41472 98.81081,30.93797 98.66295,32.49216 C98.59417,33.22112 97.98098,33.76727 97.26234,33.76727 Z" id="Shape"></path>
                        <path d="M96.28466,53.50183 C96.09554,53.50183 95.90299,53.46287 95.71846,53.38206 C88.24321,50.09373 83.69755,45.03688 81.82128,37.9221 C81.62299,37.16965 82.07229,36.39943 82.82417,36.20114 C83.5749,36.00457 84.34742,36.45157 84.54455,37.20346 C86.08957,43.06148 89.74009,47.3441 95.68751,50.26279 C97.85489,45.91369 97.22107,41.854 96.49555,37.20976 C96.25944,35.69568 96.01531,34.1306 95.85943,32.49217 C95.78607,31.71794 96.35343,31.03024 97.12823,30.95689 C97.89272,30.8801 98.58958,31.45146 98.66294,32.22512 C98.8108,33.77931 99.04919,35.30255 99.27843,36.77537 C100.11398,42.12048 100.90139,47.16988 97.49157,52.82102 C97.2291,53.25541 96.76605,53.50183 96.28466,53.50183 Z" id="Shape"></path>
                        <path d="M12.70904,38.96739 C11.7199,38.96739 10.74796,38.88429 9.79321,38.71753 C3.56269,37.62868 0.55746,33.32829 0.43253,33.14548 C-0.00989,32.49905 -0.11763,31.7294 0.13109,30.97924 C1.07667,28.12244 7.68886,25.36707 19.55963,21.28216 C31.58971,17.14224 58.61041,14.9164 83.74109,25.75906 C84.45515,26.0668 84.7841,26.89548 84.47578,27.61011 C84.16976,28.32302 83.34338,28.65541 82.62474,28.3448 C58.40525,17.89527 31.65276,20.09933 20.47656,23.94584 C16.38936,25.35218 4.14723,29.56489 2.87614,31.71451 C3.42057,32.40851 5.83094,35.16617 10.27803,35.94327 C15.22714,36.8069 20.88573,34.97018 27.10479,30.48239 C27.73747,30.02679 28.61657,30.16892 29.07045,30.80045 C29.52547,31.43141 29.38335,32.31166 28.75296,32.76668 C23.03708,36.88998 17.65472,38.96739 12.70904,38.96739 Z" id="Shape"></path>
                        <path d="M47.54769,47.49481 C46.82561,47.49481 46.21127,46.94294 46.14594,46.21054 C46.1425,46.16814 46.14021,46.1263 46.14021,46.08446 C46.14021,45.36296 46.69151,44.74861 47.42391,44.68328 C57.85854,43.75776 68.65536,40.63218 82.77145,36.31746 C83.51187,36.08995 84.30272,36.50887 84.52966,37.25273 C84.57207,37.3897 84.59155,37.52838 84.59155,37.66477 C84.59155,38.26765 84.20071,38.82583 83.5944,39.01093 C69.3144,43.37608 58.3789,46.5389 47.67378,47.48907 C47.63136,47.49252 47.58895,47.49481 47.54769,47.49481 Z" id="Shape"></path>
                        <path d="M35.52219,47.40656 C35.46603,47.40656 35.41101,47.40312 35.35485,47.39625 C27.98047,46.52632 20.73559,43.5612 13.82196,38.58286 C13.19043,38.12841 13.04716,37.24873 13.50218,36.6172 C13.95606,35.98567 14.83746,35.84182 15.46784,36.29742 C21.98948,40.99266 28.79079,43.78585 35.68494,44.59962 C36.45745,44.69074 37.0099,45.39047 36.9182,46.16298 C36.8334,46.87933 36.22593,47.40656 35.52219,47.40656 Z" id="Shape"></path>
                        <path d="M58.69753,55.02393 C58.65512,55.02393 58.61386,55.02221 58.57145,55.01877 C45.96943,53.89553 32.70723,51.06796 29.89226,38.60921 C29.72034,37.85045 30.19599,37.09628 30.95475,36.92493 C31.70892,36.75243 32.46654,37.22866 32.63846,37.98799 C34.27517,45.22598 40.18706,49.3854 52.03376,51.3671 C45.64507,47.15268 41.84212,42.66489 40.23176,37.51749 C40.00024,36.77478 40.41286,35.98507 41.15557,35.75298 C41.89828,35.51802 42.68798,35.93407 42.92065,36.67621 C44.72012,42.42821 50.09217,47.56013 59.34511,52.36598 C59.94226,52.67602 60.23682,53.36486 60.0477,54.01015 C59.87119,54.61533 59.3176,55.02393 58.69753,55.02393 Z" id="Shape"></path>
                        <path d="M21.18947,29.13163 C20.56825,29.13163 19.99861,28.71672 19.83013,28.08748 C19.62841,27.33674 20.07426,26.56423 20.82614,26.36251 L22.53392,25.90462 C23.27663,25.70462 24.05716,26.14818 24.25889,26.90063 C24.46061,27.65136 24.01476,28.42387 23.26288,28.6256 L21.5551,29.08349 C21.43361,29.11616 21.31097,29.13163 21.18947,29.13163 Z" id="Shape"></path>
                        <path d="M33.69292,21.23459 C33.5806,21.23459 33.46713,21.22141 33.35366,21.19276 C32.59834,21.00594 32.13758,20.24259 32.32441,19.48785 C34.67174,10.0051 41.07189,3.79292 51.34835,1.02438 C51.86527,0.88627 52.41313,1.0496 52.76615,1.44674 C53.12031,1.84446 53.22003,2.40779 53.02404,2.90351 C50.97929,8.06237 49.42968,13.57367 51.91227,18.92395 C52.24007,19.62941 51.93404,20.46725 51.22801,20.79448 C50.52427,21.12286 49.68643,20.81569 49.35863,20.11022 C46.88407,14.77886 47.71045,9.54092 49.39875,4.58263 C41.66218,7.36378 36.95949,12.4831 35.05915,20.16409 C34.89983,20.80536 34.3256,21.23459 33.69292,21.23459 Z" id="Shape"></path>
                    </g>
                </g>
                <g id="svg-card-3-group" transform="translate(27.000000, 15.000000)">
                    <g id="svg-card-3" transform="translate(87.597474, 86.391304) scale(-1, 1) rotate(133.539993) translate(-87.597474, -86.391304) ">
                        <use fill="black" fill-opacity="1" filter="url(#filter-8)" xlink:href="#path-7"></use>
                        <use fill="#4C4C4C" fill-rule="evenodd" xlink:href="#path-7"></use>
                    </g>
                    <g id="svg-card-3-mascot" transform="translate(57.000000, 54.000000)">
                        <path d="M55.4375,16.611236 C53.25,14.2831461 50.3125,13.0247191 46.375,12.7101124 C45.9375,12.647191 45.5625,12.3955056 45.375,12.0179775 C44.875,11.0741573 44.0625,10.3191011 42.875,9.81573034 C42.125,9.5011236 41.375,9.3752809 40.6875,9.3752809 C40.1875,9.3752809 39.75,8.99775281 39.625,8.55730337 C38.9375,6.29213483 37.25,4.21573034 34.8125,2.70561798 C29,-0.75505618 19.9375,-0.440449438 13.1875,3.46067416 C6.625,7.23595506 3,13.8426966 3,22.0224719 C3,23.5325843 3,25.105618 3,26.741573 C3,36.9348315 2.9375,48.4494382 0.75,53.105618 L0.625,53.294382 C0.125,54.3011236 1.1875,55.3707865 2.1875,54.8674157 L5.625,53.105618 C6.0625,52.8539326 6.625,52.9797753 7,53.3573034 L8.25,54.6157303 C9,55.3707865 10.25,55.3707865 11.0625,54.6157303 L11.0625,54.6157303 C11.875,53.7977528 13.25,53.8606742 14,54.741573 L14.3125,55.0561798 C15,55.8741573 16.25,56 17.125,55.3078652 L17.9375,54.6157303 C18.75,53.9865169 19.875,53.9865169 20.625,54.741573 L21.0625,55.1820225 C21.8125,55.9370787 23.0625,55.9370787 23.875,55.1820225 L24.25,54.8044944 C25,54.0494382 26.1875,54.0494382 26.9375,54.741573 L27.5625,55.2449438 C28.375,56 29.625,55.8741573 30.375,55.0561798 L30.8125,54.552809 C31.5625,53.6719101 32.875,53.6719101 33.6875,54.4898876 L33.75,54.552809 C34.5,55.3078652 35.75,55.3078652 36.5625,54.552809 L37.8125,53.294382 C38.1875,52.9168539 38.6875,52.8539326 39.1875,53.0426966 L42.6875,54.8044944 C43.6875,55.3078652 44.8125,54.1752809 44.25,53.1685393 L44.125,52.9797753 C42.6875,50.2741573 42.1875,40.8359551 42.0625,34.6067416 C42,33.2224719 43.0625,32.0898876 44.4375,31.9640449 C48.5625,31.5865169 52.25,31.0831461 54.375,30.0764045 C55,29.7617978 55.75,30.0764045 56.0625,30.705618 C56.1875,30.9573034 56.25,31.1460674 56.375,31.3348315 C56.75,32.2157303 57.25,33.3483146 58.4375,33.3483146 L58.4375,33.3483146 C59.125,33.3483146 59.625,32.8449438 59.6875,32.152809 L59.6875,32.152809 C59.8125,25.0426966 58.5,19.8202247 55.4375,16.611236 Z M37.125,50.1483146 L36.375,50.9033708 C35.625,51.658427 34.375,51.658427 33.5625,50.9033708 L33.375,50.7146067 C32.5625,49.8966292 31.25,49.9595506 30.5,50.7775281 L29.9375,51.4067416 C29.1875,52.2247191 28,52.2876404 27.125,51.5955056 L26.625,51.1550562 C25.8125,50.4629213 24.6875,50.5258427 23.9375,51.2179775 L23.6875,51.4696629 C22.9375,52.2247191 21.6875,52.2247191 20.875,51.4696629 L20.625,51.2179775 C19.875,50.4629213 18.75,50.4629213 17.9375,51.0921348 L17.3125,51.5955056 C16.5,52.2876404 15.25,52.1617978 14.5,51.3438202 L14.0625,50.8404494 C13.3125,49.9595506 12,49.8966292 11.125,50.7146067 L10.9375,50.9033708 C10.1875,51.658427 8.9375,51.658427 8.125,50.9033708 L7.375,50.1483146 C7,49.7707865 6.5,49.7078652 6,49.8966292 L6,49.8966292 C5.125,50.3370787 4.1875,49.5820225 4.3125,48.6382022 C5.25,42.7865169 5.3125,34.6067416 5.3125,26.6157303 C5.3125,25.0426966 5.3125,23.4696629 5.3125,21.8966292 C5.3125,12.5842697 10.1875,7.86516854 14.25,5.53707865 C20.25,2.07640449 28.25,1.76179775 33.3125,4.78202247 C35.125,5.85168539 37.3125,7.86516854 37.3125,11.2629213 C37.0625,14.4719101 35.1875,18.1213483 33,19.694382 C32.75,19.8831461 32.5,19.8831461 32.1875,19.8831461 C30.3125,19.694382 28.5625,20.5123596 27.1875,22.211236 C25.5,24.4134831 24.6875,28.1258427 26.4375,30.9573034 C27.875,33.3483146 30.375,34.7955056 33.0625,34.858427 C33.125,34.858427 33.1875,34.858427 33.25,34.858427 C34.0625,34.858427 34.875,34.7325843 35.6875,34.4808989 C37.375,33.9146067 39.125,35.1101124 39.1875,36.8719101 C39.375,41.9685393 39.625,45.8067416 40.0625,48.7011236 C40.1875,49.6449438 39.25,50.3370787 38.375,49.9595506 L38.3125,49.8966292 C38.0625,49.7078652 37.5,49.8337079 37.125,50.1483146 Z M45.8125,23.4696629 C38.4375,23.5325843 34,24.4764045 32.25,26.4898876 C31.625,27.1820225 32,28.2516854 32.875,28.4404494 L33.0625,28.5033708 C33.4375,28.5662921 33.875,28.4404494 34.1875,28.188764 C34.9375,27.4337079 37.5,26.1123596 45.875,26.0494382 C45.9375,26.0494382 46.0625,26.0494382 46.125,26.0494382 C47.3125,26.0494382 48.375,26.1123596 49.3125,26.3011236 C50.75,26.552809 50.75,28.5662921 49.3125,28.8179775 C46.5,29.258427 43.125,29.5101124 41,29.6988764 C40,29.7617978 39.0625,29.8247191 38.4375,29.8876404 L37.875,29.9505618 L37.5625,30.4539326 C36.6875,31.7752809 35.125,32.5303371 33.4375,32.4674157 C31.5625,32.4044944 29.875,31.3977528 28.875,29.7617978 C27.75,27.8741573 28.375,25.3573034 29.5,23.847191 C30,23.1550562 31.125,22.0853933 32.75,22.588764 L33.25,22.7146067 L33.6875,22.4629213 C36.9375,20.8269663 39.1875,16.5483146 39.9375,12.8359551 C40.0625,12.2696629 40.625,11.8292135 41.1875,11.8921348 C41.5,11.9550562 41.75,12.0179775 42.0625,12.1438202 C42.375,12.2696629 43.5,12.8359551 43.4375,13.8426966 L43.4375,13.905618 C43.4375,14.5977528 43.9375,15.1011236 44.625,15.1011236 L44.6875,15.1011236 C48.75,15.1011236 51.6875,16.1707865 53.75,18.3101124 C55.0625,19.694382 56,21.6449438 56.5625,24.0988764 C56.8125,25.1685393 55.625,26.0494382 54.6875,25.4831461 C52.6875,24.2876404 50,23.4696629 45.8125,23.4696629 Z" id="Shape" fill="#E4E4E4"></path>
                        <path d="M28.125,19.505618 C28.875,19.505618 29.625,19.3168539 30.375,19.0022472 C31.375,18.4988764 32.25,17.6808989 32.75,16.611236 L32.875,16.4224719 L32.8125,16.0449438 C32.75,15.6044944 32.6875,15.1640449 32.5625,14.7235955 C32,12.9617978 30.625,11.7033708 29,11.0741573 L29,11.011236 C26.375,9.94157303 23.75,9.62696629 21.1875,10.0674157 C20.5,10.1932584 20.0625,10.8853933 20.25,11.5146067 L20.3125,11.7033708 C20.4375,12.2696629 21,12.647191 21.625,12.5842697 L21.625,12.5842697 C22.375,12.458427 23.0625,13.0876404 23,13.8426966 C22.9375,14.5348315 23,15.2898876 23.25,15.9820225 C23.6875,17.3033708 24.625,18.3730337 25.8125,18.9393258 C26.5625,19.3168539 27.375,19.505618 28.125,19.505618 Z M25.625,13.5280899 C25.75,13.4651685 25.875,13.4022472 25.9375,13.4022472 C27.6875,12.8359551 29.5625,13.7797753 30.1875,15.541573 C30.25,15.6674157 30.25,15.7932584 30.3125,15.9191011 C30,16.3595506 29.5625,16.6741573 29,16.8629213 C28.3125,17.1146067 27.625,17.0516854 27,16.7370787 C26.375,16.4224719 25.875,15.8561798 25.6875,15.2269663 C25.4375,14.5977528 25.4375,14.094382 25.625,13.5280899 Z" id="Shape" fill="#E8E8E8"></path>
                    </g>
                </g>
                <g id="svg-card-4-group" transform="translate(47.000000, 28.000000)">
                    <g id="svg-card-4" transform="translate(69.838368, 71.446228) scale(-1, 1) rotate(142.690002) translate(-69.838368, -71.446228) ">
                        <use fill="black" fill-opacity="1" filter="url(#filter-10)" xlink:href="#path-9"></use>
                        <use fill="#FFFFFF" fill-rule="evenodd" xlink:href="#path-9"></use>
                    </g>
                    <g id="svg-card-4-mascot" transform="translate(41.000000, 54.000000)" fill="#4B4B4B">
                        <path d="M53.5833333,2.09146341 C52.7083333,0.853658537 51.375,0.170731707 49.9166667,0.170731707 C42.6666667,0.170731707 35.7916667,4.05487805 31.5833333,10.5426829 L29.7916667,13.3170732 C29.6666667,13.0609756 29.5,12.804878 29.2916667,12.5914634 C29.2083333,12.5060976 29.125,12.4634146 29.0416667,12.3780488 C29.125,9.68902439 30.0833333,7.08536585 31.7916667,5.07926829 L31.875,4.95121951 C32.0833333,4.69512195 32.0833333,4.26829268 31.7916667,4.05487805 C31.5416667,3.84146341 31.125,3.84146341 30.9166667,4.1402439 L30.8333333,4.18292683 C29.0416667,6.31707317 28,9.00609756 27.7916667,11.8231707 C27.7083333,11.8231707 27.6666667,11.7804878 27.5833333,11.7804878 C27.4583333,11.7804878 27.3333333,11.7804878 27.2083333,11.7804878 C27.0416667,8.96341463 25.9583333,6.31707317 24.1666667,4.18292683 L24.0833333,4.05487805 C23.875,3.79878049 23.4583333,3.75609756 23.2083333,3.9695122 C22.9583333,4.18292683 22.9166667,4.6097561 23.125,4.86585366 L23.2083333,4.99390244 C24.9166667,7.04268293 25.875,9.60365854 25.9583333,12.2926829 C25.875,12.3353659 25.7916667,12.4207317 25.7083333,12.5060976 C25.4583333,12.7195122 25.2916667,13.0182927 25.125,13.3170732 L23.3333333,10.5426829 C19.1666667,4.05487805 12.3333333,0.170731707 5.08333333,0.170731707 C3.66666667,0.170731707 2.33333333,0.853658537 1.41666667,2.09146341 C0.458333333,3.41463415 0.166666667,5.16463415 0.625,6.74390244 L3.79166667,17.4573171 C4.125,18.6097561 4.95833333,19.4207317 6,19.7195122 C5.75,19.9756098 5.5,20.2743902 5.29166667,20.6158537 C3.95833333,22.6219512 3.66666667,25.1829268 4.54166667,27.445122 L5.66666667,30.4329268 C6.5,32.652439 8.33333333,34.2743902 10.5,34.7012195 C10.875,34.7865854 11.2916667,34.8292683 11.6666667,34.8292683 C13.375,34.8292683 15.0416667,34.1036585 16.25,32.7378049 L25.6666667,22.3658537 C26.0833333,26.804878 26.5416667,31.5853659 26.7083333,32.2682927 C26.7083333,32.3109756 26.7083333,32.3536585 26.75,32.3536585 C26.875,32.695122 27.1666667,32.9512195 27.5416667,32.9512195 C27.9166667,32.9512195 28.25,32.695122 28.3333333,32.3536585 C28.3333333,32.3109756 28.3333333,32.3109756 28.375,32.2682927 C28.5,31.5853659 28.9583333,26.804878 29.375,22.3658537 L38.7916667,32.7378049 C40,34.1036585 41.6666667,34.8292683 43.375,34.8292683 C43.75,34.8292683 44.1666667,34.7865854 44.5416667,34.7012195 C46.7083333,34.2743902 48.5416667,32.652439 49.375,30.4329268 L50.5,27.445122 C51.375,25.1402439 51.0833333,22.6219512 49.75,20.6158537 C49.5416667,20.2743902 49.2916667,20.0182927 49.0416667,19.7195122 C50.0833333,19.4207317 50.9166667,18.5670732 51.25,17.4573171 L54.4166667,6.74390244 C54.8333333,5.12195122 54.5416667,3.41463415 53.5833333,2.09146341 Z M26.5833333,14.5121951 C26.5833333,14.2134146 26.7083333,13.9573171 26.9166667,13.7439024 C27,13.6585366 27.25,13.4878049 27.5416667,13.4878049 C27.75,13.4878049 27.9583333,13.5731707 28.125,13.7439024 C28.2916667,13.9146341 28.375,14.1280488 28.375,14.3841463 C28.125,17.3292683 27.7916667,20.9146341 27.4583333,24.1158537 C27.2083333,20.9573171 26.875,17.4146341 26.5833333,14.5121951 Z M2.625,6.10365854 C2.33333333,5.16463415 2.5,4.09756098 3.08333333,3.32926829 C3.58333333,2.64634146 4.29166667,2.26219512 5.08333333,2.26219512 C11.6666667,2.26219512 17.8333333,5.80487805 21.6666667,11.695122 L25.1666667,17.1158537 C25.1666667,17.3292683 25.2083333,17.5 25.2083333,17.7134146 L10.5416667,17.7134146 L6.875,17.7134146 C6.41666667,17.7134146 5.95833333,17.3719512 5.83333333,16.8170732 L2.625,6.10365854 Z M14.75,31.2865854 C13.7083333,32.3963415 12.3333333,32.9085366 10.9166667,32.6097561 C9.45833333,32.3109756 8.20833333,31.2012195 7.625,29.6646341 L6.5,26.6768293 C5.875,25.054878 6.08333333,23.2195122 7.04166667,21.8109756 C7.875,20.5731707 9.16666667,19.847561 10.5416667,19.847561 L25.125,19.847561 L14.75,31.2865854 Z M48.5416667,26.6768293 L47.4166667,29.6646341 C46.8333333,31.2012195 45.625,32.3109756 44.125,32.6097561 C42.7083333,32.9085366 41.2916667,32.3963415 40.2916667,31.2865854 L29.875,19.847561 L44.4583333,19.847561 C45.8333333,19.847561 47.125,20.5731707 47.9583333,21.8109756 C48.9583333,23.2195122 49.125,25.054878 48.5416667,26.6768293 Z M52.375,6.10365854 L49.2083333,16.8170732 C49.0416667,17.3292683 48.625,17.7134146 48.1666667,17.7134146 L44.5,17.7134146 L29.75,17.7134146 C29.75,17.5 29.7916667,17.3292683 29.7916667,17.1158537 L33.3333333,11.695122 C37.1666667,5.80487805 43.375,2.26219512 49.9166667,2.26219512 C50.6666667,2.26219512 51.4166667,2.64634146 51.9166667,3.32926829 C52.4583333,4.1402439 52.6666667,5.16463415 52.375,6.10365854 Z" id="Shape"></path>
                    </g>
                </g>
            </g>
        </g>
    </g>
</svg>